<mxfile host="Electron" agent="Mozilla/5.0 (Windows NT 10.0; Win64; x64) AppleWebKit/537.36 (KHTML, like Gecko) draw.io/28.1.2 Chrome/138.0.7204.243 Electron/37.4.0 Safari/537.36" version="28.1.2">
  <diagram name="Page-1" id="dC1qMqiYUwuDBzkvFWnD">
    <mxGraphModel dx="693" dy="470" grid="1" gridSize="10" guides="1" tooltips="1" connect="1" arrows="1" fold="1" page="1" pageScale="1" pageWidth="850" pageHeight="1100" math="1" shadow="0">
      <root>
        <mxCell id="0" />
        <mxCell id="1" parent="0" />
        <mxCell id="_3eXtyB6_VE_7zWDLSlq-2" value="" style="endArrow=none;html=1;rounded=0;" edge="1" parent="1">
          <mxGeometry width="50" height="50" relative="1" as="geometry">
            <mxPoint x="130" y="348.45" as="sourcePoint" />
            <mxPoint x="120" y="328.45" as="targetPoint" />
          </mxGeometry>
        </mxCell>
        <mxCell id="_3eXtyB6_VE_7zWDLSlq-3" value="" style="endArrow=none;html=1;rounded=0;" edge="1" parent="1">
          <mxGeometry width="50" height="50" relative="1" as="geometry">
            <mxPoint x="200" y="328.45" as="sourcePoint" />
            <mxPoint x="120" y="328.45" as="targetPoint" />
          </mxGeometry>
        </mxCell>
        <mxCell id="_3eXtyB6_VE_7zWDLSlq-4" value="" style="endArrow=none;html=1;rounded=0;" edge="1" parent="1">
          <mxGeometry width="50" height="50" relative="1" as="geometry">
            <mxPoint x="190" y="348.45" as="sourcePoint" />
            <mxPoint x="200" y="328.45" as="targetPoint" />
          </mxGeometry>
        </mxCell>
        <mxCell id="_3eXtyB6_VE_7zWDLSlq-5" value="" style="endArrow=none;html=1;rounded=0;" edge="1" parent="1">
          <mxGeometry width="50" height="50" relative="1" as="geometry">
            <mxPoint x="190" y="348.45" as="sourcePoint" />
            <mxPoint x="130" y="348.45" as="targetPoint" />
          </mxGeometry>
        </mxCell>
        <mxCell id="_3eXtyB6_VE_7zWDLSlq-6" value="MUX" style="text;html=1;align=center;verticalAlign=middle;whiteSpace=wrap;rounded=0;" vertex="1" parent="1">
          <mxGeometry x="120" y="328.45" width="80" height="20" as="geometry" />
        </mxCell>
        <mxCell id="_3eXtyB6_VE_7zWDLSlq-8" value="" style="endArrow=none;html=1;rounded=0;" edge="1" parent="1">
          <mxGeometry width="50" height="50" relative="1" as="geometry">
            <mxPoint x="130" y="328.45" as="sourcePoint" />
            <mxPoint x="130" y="308.45" as="targetPoint" />
          </mxGeometry>
        </mxCell>
        <mxCell id="_3eXtyB6_VE_7zWDLSlq-9" value="" style="endArrow=none;html=1;rounded=0;" edge="1" parent="1">
          <mxGeometry width="50" height="50" relative="1" as="geometry">
            <mxPoint x="150" y="328.45" as="sourcePoint" />
            <mxPoint x="150" y="308.45" as="targetPoint" />
          </mxGeometry>
        </mxCell>
        <mxCell id="_3eXtyB6_VE_7zWDLSlq-10" value="" style="endArrow=none;html=1;rounded=0;" edge="1" parent="1">
          <mxGeometry width="50" height="50" relative="1" as="geometry">
            <mxPoint x="150" y="328.45" as="sourcePoint" />
            <mxPoint x="150" y="308.45" as="targetPoint" />
          </mxGeometry>
        </mxCell>
        <mxCell id="_3eXtyB6_VE_7zWDLSlq-11" value="" style="endArrow=none;html=1;rounded=0;" edge="1" parent="1">
          <mxGeometry width="50" height="50" relative="1" as="geometry">
            <mxPoint x="170" y="328.45" as="sourcePoint" />
            <mxPoint x="170" y="308.45" as="targetPoint" />
          </mxGeometry>
        </mxCell>
        <mxCell id="_3eXtyB6_VE_7zWDLSlq-12" value="" style="endArrow=none;html=1;rounded=0;" edge="1" parent="1">
          <mxGeometry width="50" height="50" relative="1" as="geometry">
            <mxPoint x="190" y="328.45" as="sourcePoint" />
            <mxPoint x="190" y="308.45" as="targetPoint" />
          </mxGeometry>
        </mxCell>
        <mxCell id="_3eXtyB6_VE_7zWDLSlq-13" value="" style="endArrow=none;html=1;rounded=0;" edge="1" parent="1">
          <mxGeometry width="50" height="50" relative="1" as="geometry">
            <mxPoint x="160.1" y="450" as="sourcePoint" />
            <mxPoint x="159.9" y="348" as="targetPoint" />
          </mxGeometry>
        </mxCell>
        <mxCell id="_3eXtyB6_VE_7zWDLSlq-14" value="" style="endArrow=none;html=1;rounded=0;" edge="1" parent="1">
          <mxGeometry width="50" height="50" relative="1" as="geometry">
            <mxPoint x="230" y="348.78" as="sourcePoint" />
            <mxPoint x="220" y="328.78" as="targetPoint" />
          </mxGeometry>
        </mxCell>
        <mxCell id="_3eXtyB6_VE_7zWDLSlq-15" value="" style="endArrow=none;html=1;rounded=0;" edge="1" parent="1">
          <mxGeometry width="50" height="50" relative="1" as="geometry">
            <mxPoint x="300" y="328.78" as="sourcePoint" />
            <mxPoint x="220" y="328.78" as="targetPoint" />
          </mxGeometry>
        </mxCell>
        <mxCell id="_3eXtyB6_VE_7zWDLSlq-16" value="" style="endArrow=none;html=1;rounded=0;" edge="1" parent="1">
          <mxGeometry width="50" height="50" relative="1" as="geometry">
            <mxPoint x="290" y="348.78" as="sourcePoint" />
            <mxPoint x="300" y="328.78" as="targetPoint" />
          </mxGeometry>
        </mxCell>
        <mxCell id="_3eXtyB6_VE_7zWDLSlq-17" value="" style="endArrow=none;html=1;rounded=0;" edge="1" parent="1">
          <mxGeometry width="50" height="50" relative="1" as="geometry">
            <mxPoint x="290" y="348.78" as="sourcePoint" />
            <mxPoint x="230" y="348.78" as="targetPoint" />
          </mxGeometry>
        </mxCell>
        <mxCell id="_3eXtyB6_VE_7zWDLSlq-18" value="MUX" style="text;html=1;align=center;verticalAlign=middle;whiteSpace=wrap;rounded=0;" vertex="1" parent="1">
          <mxGeometry x="220" y="328.78" width="80" height="20" as="geometry" />
        </mxCell>
        <mxCell id="_3eXtyB6_VE_7zWDLSlq-19" value="" style="endArrow=none;html=1;rounded=0;" edge="1" parent="1">
          <mxGeometry width="50" height="50" relative="1" as="geometry">
            <mxPoint x="230" y="328.78" as="sourcePoint" />
            <mxPoint x="230" y="308.78" as="targetPoint" />
          </mxGeometry>
        </mxCell>
        <mxCell id="_3eXtyB6_VE_7zWDLSlq-20" value="" style="endArrow=none;html=1;rounded=0;" edge="1" parent="1">
          <mxGeometry width="50" height="50" relative="1" as="geometry">
            <mxPoint x="250" y="328.78" as="sourcePoint" />
            <mxPoint x="250" y="308.78" as="targetPoint" />
          </mxGeometry>
        </mxCell>
        <mxCell id="_3eXtyB6_VE_7zWDLSlq-21" value="" style="endArrow=none;html=1;rounded=0;" edge="1" parent="1">
          <mxGeometry width="50" height="50" relative="1" as="geometry">
            <mxPoint x="250" y="328.78" as="sourcePoint" />
            <mxPoint x="250" y="308.78" as="targetPoint" />
          </mxGeometry>
        </mxCell>
        <mxCell id="_3eXtyB6_VE_7zWDLSlq-22" value="" style="endArrow=none;html=1;rounded=0;" edge="1" parent="1">
          <mxGeometry width="50" height="50" relative="1" as="geometry">
            <mxPoint x="270" y="328.78" as="sourcePoint" />
            <mxPoint x="270" y="308.78" as="targetPoint" />
          </mxGeometry>
        </mxCell>
        <mxCell id="_3eXtyB6_VE_7zWDLSlq-23" value="" style="endArrow=none;html=1;rounded=0;" edge="1" parent="1">
          <mxGeometry width="50" height="50" relative="1" as="geometry">
            <mxPoint x="290" y="328.78" as="sourcePoint" />
            <mxPoint x="290" y="308.78" as="targetPoint" />
          </mxGeometry>
        </mxCell>
        <mxCell id="_3eXtyB6_VE_7zWDLSlq-24" value="" style="endArrow=none;html=1;rounded=0;" edge="1" parent="1">
          <mxGeometry width="50" height="50" relative="1" as="geometry">
            <mxPoint x="260.04" y="430" as="sourcePoint" />
            <mxPoint x="259.84000000000003" y="349.39" as="targetPoint" />
          </mxGeometry>
        </mxCell>
        <mxCell id="_3eXtyB6_VE_7zWDLSlq-25" value="" style="endArrow=none;html=1;rounded=0;" edge="1" parent="1">
          <mxGeometry width="50" height="50" relative="1" as="geometry">
            <mxPoint x="330" y="349.39" as="sourcePoint" />
            <mxPoint x="320" y="329.39" as="targetPoint" />
          </mxGeometry>
        </mxCell>
        <mxCell id="_3eXtyB6_VE_7zWDLSlq-26" value="" style="endArrow=none;html=1;rounded=0;" edge="1" parent="1">
          <mxGeometry width="50" height="50" relative="1" as="geometry">
            <mxPoint x="400" y="329.39" as="sourcePoint" />
            <mxPoint x="320" y="329.39" as="targetPoint" />
          </mxGeometry>
        </mxCell>
        <mxCell id="_3eXtyB6_VE_7zWDLSlq-27" value="" style="endArrow=none;html=1;rounded=0;" edge="1" parent="1">
          <mxGeometry width="50" height="50" relative="1" as="geometry">
            <mxPoint x="390" y="349.39" as="sourcePoint" />
            <mxPoint x="400" y="329.39" as="targetPoint" />
          </mxGeometry>
        </mxCell>
        <mxCell id="_3eXtyB6_VE_7zWDLSlq-28" value="" style="endArrow=none;html=1;rounded=0;" edge="1" parent="1">
          <mxGeometry width="50" height="50" relative="1" as="geometry">
            <mxPoint x="390" y="349.39" as="sourcePoint" />
            <mxPoint x="330" y="349.39" as="targetPoint" />
          </mxGeometry>
        </mxCell>
        <mxCell id="_3eXtyB6_VE_7zWDLSlq-29" value="MUX" style="text;html=1;align=center;verticalAlign=middle;whiteSpace=wrap;rounded=0;" vertex="1" parent="1">
          <mxGeometry x="320" y="329.39" width="80" height="20" as="geometry" />
        </mxCell>
        <mxCell id="_3eXtyB6_VE_7zWDLSlq-30" value="" style="endArrow=none;html=1;rounded=0;" edge="1" parent="1" source="_3eXtyB6_VE_7zWDLSlq-103">
          <mxGeometry width="50" height="50" relative="1" as="geometry">
            <mxPoint x="330" y="329.39" as="sourcePoint" />
            <mxPoint x="330" y="309.39" as="targetPoint" />
          </mxGeometry>
        </mxCell>
        <mxCell id="_3eXtyB6_VE_7zWDLSlq-31" value="" style="endArrow=none;html=1;rounded=0;" edge="1" parent="1">
          <mxGeometry width="50" height="50" relative="1" as="geometry">
            <mxPoint x="350" y="329.39" as="sourcePoint" />
            <mxPoint x="350" y="309.39" as="targetPoint" />
          </mxGeometry>
        </mxCell>
        <mxCell id="_3eXtyB6_VE_7zWDLSlq-32" value="" style="endArrow=none;html=1;rounded=0;" edge="1" parent="1">
          <mxGeometry width="50" height="50" relative="1" as="geometry">
            <mxPoint x="350" y="329.39" as="sourcePoint" />
            <mxPoint x="350" y="309.39" as="targetPoint" />
          </mxGeometry>
        </mxCell>
        <mxCell id="_3eXtyB6_VE_7zWDLSlq-33" value="" style="endArrow=none;html=1;rounded=0;" edge="1" parent="1">
          <mxGeometry width="50" height="50" relative="1" as="geometry">
            <mxPoint x="370" y="329.39" as="sourcePoint" />
            <mxPoint x="370" y="309.39" as="targetPoint" />
          </mxGeometry>
        </mxCell>
        <mxCell id="_3eXtyB6_VE_7zWDLSlq-34" value="" style="endArrow=none;html=1;rounded=0;" edge="1" parent="1">
          <mxGeometry width="50" height="50" relative="1" as="geometry">
            <mxPoint x="390" y="329.39" as="sourcePoint" />
            <mxPoint x="390" y="309.39" as="targetPoint" />
          </mxGeometry>
        </mxCell>
        <mxCell id="_3eXtyB6_VE_7zWDLSlq-35" value="" style="endArrow=none;html=1;rounded=0;" edge="1" parent="1">
          <mxGeometry width="50" height="50" relative="1" as="geometry">
            <mxPoint x="360.04" y="410" as="sourcePoint" />
            <mxPoint x="359.84" y="350" as="targetPoint" />
          </mxGeometry>
        </mxCell>
        <mxCell id="_3eXtyB6_VE_7zWDLSlq-36" value="" style="endArrow=none;html=1;rounded=0;" edge="1" parent="1">
          <mxGeometry width="50" height="50" relative="1" as="geometry">
            <mxPoint x="430" y="350" as="sourcePoint" />
            <mxPoint x="420" y="330" as="targetPoint" />
          </mxGeometry>
        </mxCell>
        <mxCell id="_3eXtyB6_VE_7zWDLSlq-37" value="" style="endArrow=none;html=1;rounded=0;" edge="1" parent="1">
          <mxGeometry width="50" height="50" relative="1" as="geometry">
            <mxPoint x="500" y="330" as="sourcePoint" />
            <mxPoint x="420" y="330" as="targetPoint" />
          </mxGeometry>
        </mxCell>
        <mxCell id="_3eXtyB6_VE_7zWDLSlq-38" value="" style="endArrow=none;html=1;rounded=0;" edge="1" parent="1">
          <mxGeometry width="50" height="50" relative="1" as="geometry">
            <mxPoint x="490" y="350" as="sourcePoint" />
            <mxPoint x="500" y="330" as="targetPoint" />
          </mxGeometry>
        </mxCell>
        <mxCell id="_3eXtyB6_VE_7zWDLSlq-39" value="" style="endArrow=none;html=1;rounded=0;" edge="1" parent="1">
          <mxGeometry width="50" height="50" relative="1" as="geometry">
            <mxPoint x="490" y="350" as="sourcePoint" />
            <mxPoint x="430" y="350" as="targetPoint" />
          </mxGeometry>
        </mxCell>
        <mxCell id="_3eXtyB6_VE_7zWDLSlq-40" value="MUX" style="text;html=1;align=center;verticalAlign=middle;whiteSpace=wrap;rounded=0;" vertex="1" parent="1">
          <mxGeometry x="420" y="330" width="80" height="20" as="geometry" />
        </mxCell>
        <mxCell id="_3eXtyB6_VE_7zWDLSlq-41" value="" style="endArrow=none;html=1;rounded=0;" edge="1" parent="1">
          <mxGeometry width="50" height="50" relative="1" as="geometry">
            <mxPoint x="430" y="330" as="sourcePoint" />
            <mxPoint x="430" y="310" as="targetPoint" />
          </mxGeometry>
        </mxCell>
        <mxCell id="_3eXtyB6_VE_7zWDLSlq-42" value="" style="endArrow=none;html=1;rounded=0;" edge="1" parent="1">
          <mxGeometry width="50" height="50" relative="1" as="geometry">
            <mxPoint x="450" y="330" as="sourcePoint" />
            <mxPoint x="450" y="310" as="targetPoint" />
          </mxGeometry>
        </mxCell>
        <mxCell id="_3eXtyB6_VE_7zWDLSlq-43" value="" style="endArrow=none;html=1;rounded=0;" edge="1" parent="1">
          <mxGeometry width="50" height="50" relative="1" as="geometry">
            <mxPoint x="450" y="330" as="sourcePoint" />
            <mxPoint x="450" y="310" as="targetPoint" />
          </mxGeometry>
        </mxCell>
        <mxCell id="_3eXtyB6_VE_7zWDLSlq-44" value="" style="endArrow=none;html=1;rounded=0;" edge="1" parent="1">
          <mxGeometry width="50" height="50" relative="1" as="geometry">
            <mxPoint x="470" y="330" as="sourcePoint" />
            <mxPoint x="470" y="310" as="targetPoint" />
          </mxGeometry>
        </mxCell>
        <mxCell id="_3eXtyB6_VE_7zWDLSlq-45" value="" style="endArrow=none;html=1;rounded=0;" edge="1" parent="1">
          <mxGeometry width="50" height="50" relative="1" as="geometry">
            <mxPoint x="490" y="330" as="sourcePoint" />
            <mxPoint x="490" y="310" as="targetPoint" />
          </mxGeometry>
        </mxCell>
        <mxCell id="_3eXtyB6_VE_7zWDLSlq-46" value="" style="endArrow=none;html=1;rounded=0;" edge="1" parent="1">
          <mxGeometry width="50" height="50" relative="1" as="geometry">
            <mxPoint x="460" y="390" as="sourcePoint" />
            <mxPoint x="459.79999999999995" y="350" as="targetPoint" />
          </mxGeometry>
        </mxCell>
        <mxCell id="_3eXtyB6_VE_7zWDLSlq-47" value="" style="endArrow=none;html=1;rounded=0;" edge="1" parent="1">
          <mxGeometry width="50" height="50" relative="1" as="geometry">
            <mxPoint x="530" y="350" as="sourcePoint" />
            <mxPoint x="520" y="330" as="targetPoint" />
          </mxGeometry>
        </mxCell>
        <mxCell id="_3eXtyB6_VE_7zWDLSlq-48" value="" style="endArrow=none;html=1;rounded=0;" edge="1" parent="1">
          <mxGeometry width="50" height="50" relative="1" as="geometry">
            <mxPoint x="600" y="330" as="sourcePoint" />
            <mxPoint x="520" y="330" as="targetPoint" />
          </mxGeometry>
        </mxCell>
        <mxCell id="_3eXtyB6_VE_7zWDLSlq-49" value="" style="endArrow=none;html=1;rounded=0;" edge="1" parent="1">
          <mxGeometry width="50" height="50" relative="1" as="geometry">
            <mxPoint x="590" y="350" as="sourcePoint" />
            <mxPoint x="600" y="330" as="targetPoint" />
          </mxGeometry>
        </mxCell>
        <mxCell id="_3eXtyB6_VE_7zWDLSlq-50" value="" style="endArrow=none;html=1;rounded=0;" edge="1" parent="1">
          <mxGeometry width="50" height="50" relative="1" as="geometry">
            <mxPoint x="590" y="350" as="sourcePoint" />
            <mxPoint x="530" y="350" as="targetPoint" />
          </mxGeometry>
        </mxCell>
        <mxCell id="_3eXtyB6_VE_7zWDLSlq-51" value="MUX" style="text;html=1;align=center;verticalAlign=middle;whiteSpace=wrap;rounded=0;" vertex="1" parent="1">
          <mxGeometry x="520" y="330" width="80" height="20" as="geometry" />
        </mxCell>
        <mxCell id="_3eXtyB6_VE_7zWDLSlq-52" value="" style="endArrow=none;html=1;rounded=0;" edge="1" parent="1">
          <mxGeometry width="50" height="50" relative="1" as="geometry">
            <mxPoint x="530" y="330" as="sourcePoint" />
            <mxPoint x="530" y="310" as="targetPoint" />
          </mxGeometry>
        </mxCell>
        <mxCell id="_3eXtyB6_VE_7zWDLSlq-53" value="" style="endArrow=none;html=1;rounded=0;" edge="1" parent="1">
          <mxGeometry width="50" height="50" relative="1" as="geometry">
            <mxPoint x="550" y="330" as="sourcePoint" />
            <mxPoint x="550" y="310" as="targetPoint" />
          </mxGeometry>
        </mxCell>
        <mxCell id="_3eXtyB6_VE_7zWDLSlq-54" value="" style="endArrow=none;html=1;rounded=0;" edge="1" parent="1">
          <mxGeometry width="50" height="50" relative="1" as="geometry">
            <mxPoint x="550" y="330" as="sourcePoint" />
            <mxPoint x="550" y="310" as="targetPoint" />
          </mxGeometry>
        </mxCell>
        <mxCell id="_3eXtyB6_VE_7zWDLSlq-55" value="" style="endArrow=none;html=1;rounded=0;" edge="1" parent="1">
          <mxGeometry width="50" height="50" relative="1" as="geometry">
            <mxPoint x="570" y="330" as="sourcePoint" />
            <mxPoint x="570" y="310" as="targetPoint" />
          </mxGeometry>
        </mxCell>
        <mxCell id="_3eXtyB6_VE_7zWDLSlq-56" value="" style="endArrow=none;html=1;rounded=0;" edge="1" parent="1">
          <mxGeometry width="50" height="50" relative="1" as="geometry">
            <mxPoint x="590" y="330" as="sourcePoint" />
            <mxPoint x="590" y="310" as="targetPoint" />
          </mxGeometry>
        </mxCell>
        <mxCell id="_3eXtyB6_VE_7zWDLSlq-57" value="" style="endArrow=none;html=1;rounded=0;" edge="1" parent="1">
          <mxGeometry width="50" height="50" relative="1" as="geometry">
            <mxPoint x="559.8" y="370" as="sourcePoint" />
            <mxPoint x="559.8" y="350" as="targetPoint" />
          </mxGeometry>
        </mxCell>
        <mxCell id="_3eXtyB6_VE_7zWDLSlq-58" value="" style="endArrow=none;html=1;rounded=0;" edge="1" parent="1">
          <mxGeometry width="50" height="50" relative="1" as="geometry">
            <mxPoint x="560" y="370" as="sourcePoint" />
            <mxPoint x="620" y="370" as="targetPoint" />
          </mxGeometry>
        </mxCell>
        <mxCell id="_3eXtyB6_VE_7zWDLSlq-59" value="" style="endArrow=none;html=1;rounded=0;" edge="1" parent="1">
          <mxGeometry width="50" height="50" relative="1" as="geometry">
            <mxPoint x="460" y="390" as="sourcePoint" />
            <mxPoint x="620" y="390" as="targetPoint" />
          </mxGeometry>
        </mxCell>
        <mxCell id="_3eXtyB6_VE_7zWDLSlq-60" value="" style="endArrow=none;html=1;rounded=0;" edge="1" parent="1">
          <mxGeometry width="50" height="50" relative="1" as="geometry">
            <mxPoint x="360" y="410" as="sourcePoint" />
            <mxPoint x="620" y="410" as="targetPoint" />
          </mxGeometry>
        </mxCell>
        <mxCell id="_3eXtyB6_VE_7zWDLSlq-61" value="" style="endArrow=none;html=1;rounded=0;" edge="1" parent="1">
          <mxGeometry width="50" height="50" relative="1" as="geometry">
            <mxPoint x="260" y="430" as="sourcePoint" />
            <mxPoint x="620" y="430" as="targetPoint" />
          </mxGeometry>
        </mxCell>
        <mxCell id="_3eXtyB6_VE_7zWDLSlq-62" value="" style="endArrow=none;html=1;rounded=0;" edge="1" parent="1">
          <mxGeometry width="50" height="50" relative="1" as="geometry">
            <mxPoint x="160" y="450" as="sourcePoint" />
            <mxPoint x="620" y="450" as="targetPoint" />
          </mxGeometry>
        </mxCell>
        <mxCell id="_3eXtyB6_VE_7zWDLSlq-63" value="$$d_{o0}$$" style="text;html=1;align=center;verticalAlign=middle;whiteSpace=wrap;rounded=0;" vertex="1" parent="1">
          <mxGeometry x="620" y="440" width="30" height="20" as="geometry" />
        </mxCell>
        <mxCell id="_3eXtyB6_VE_7zWDLSlq-65" value="$$d_{o1}$$" style="text;html=1;align=center;verticalAlign=middle;whiteSpace=wrap;rounded=0;" vertex="1" parent="1">
          <mxGeometry x="620" y="420" width="30" height="20" as="geometry" />
        </mxCell>
        <mxCell id="_3eXtyB6_VE_7zWDLSlq-66" value="$$d_{o2}$$" style="text;html=1;align=center;verticalAlign=middle;whiteSpace=wrap;rounded=0;" vertex="1" parent="1">
          <mxGeometry x="620" y="400" width="30" height="20" as="geometry" />
        </mxCell>
        <mxCell id="_3eXtyB6_VE_7zWDLSlq-67" value="$$d_{o3}$$" style="text;html=1;align=center;verticalAlign=middle;whiteSpace=wrap;rounded=0;" vertex="1" parent="1">
          <mxGeometry x="620" y="380" width="30" height="20" as="geometry" />
        </mxCell>
        <mxCell id="_3eXtyB6_VE_7zWDLSlq-68" value="$$d_{o4}$$" style="text;html=1;align=center;verticalAlign=middle;whiteSpace=wrap;rounded=0;" vertex="1" parent="1">
          <mxGeometry x="620" y="360" width="30" height="20" as="geometry" />
        </mxCell>
        <mxCell id="_3eXtyB6_VE_7zWDLSlq-69" value="" style="endArrow=none;html=1;rounded=0;startSize=6;endSize=6;" edge="1" parent="1">
          <mxGeometry width="50" height="50" relative="1" as="geometry">
            <mxPoint x="110" y="338.68999999999994" as="sourcePoint" />
            <mxPoint x="125" y="338.68999999999994" as="targetPoint" />
          </mxGeometry>
        </mxCell>
        <mxCell id="_3eXtyB6_VE_7zWDLSlq-70" value="" style="endArrow=none;html=1;rounded=0;" edge="1" parent="1">
          <mxGeometry width="50" height="50" relative="1" as="geometry">
            <mxPoint x="120" y="343.78" as="sourcePoint" />
            <mxPoint x="115" y="333.78" as="targetPoint" />
          </mxGeometry>
        </mxCell>
        <mxCell id="_3eXtyB6_VE_7zWDLSlq-71" value="$$s$$" style="text;html=1;align=center;verticalAlign=middle;whiteSpace=wrap;rounded=0;" vertex="1" parent="1">
          <mxGeometry x="100" y="328.78" width="10" height="20" as="geometry" />
        </mxCell>
        <mxCell id="_3eXtyB6_VE_7zWDLSlq-72" value="" style="endArrow=none;html=1;rounded=0;startSize=6;endSize=6;" edge="1" parent="1">
          <mxGeometry width="50" height="50" relative="1" as="geometry">
            <mxPoint x="210" y="338.35999999999996" as="sourcePoint" />
            <mxPoint x="225" y="338.35999999999996" as="targetPoint" />
          </mxGeometry>
        </mxCell>
        <mxCell id="_3eXtyB6_VE_7zWDLSlq-73" value="" style="endArrow=none;html=1;rounded=0;" edge="1" parent="1">
          <mxGeometry width="50" height="50" relative="1" as="geometry">
            <mxPoint x="220" y="343.45" as="sourcePoint" />
            <mxPoint x="215" y="333.45" as="targetPoint" />
          </mxGeometry>
        </mxCell>
        <mxCell id="_3eXtyB6_VE_7zWDLSlq-74" value="$$s$$" style="text;html=1;align=center;verticalAlign=middle;whiteSpace=wrap;rounded=0;" vertex="1" parent="1">
          <mxGeometry x="200" y="328.45" width="10" height="20" as="geometry" />
        </mxCell>
        <mxCell id="_3eXtyB6_VE_7zWDLSlq-78" value="" style="endArrow=none;html=1;rounded=0;startSize=6;endSize=6;" edge="1" parent="1">
          <mxGeometry width="50" height="50" relative="1" as="geometry">
            <mxPoint x="310" y="339.90999999999997" as="sourcePoint" />
            <mxPoint x="325" y="339.90999999999997" as="targetPoint" />
          </mxGeometry>
        </mxCell>
        <mxCell id="_3eXtyB6_VE_7zWDLSlq-79" value="" style="endArrow=none;html=1;rounded=0;" edge="1" parent="1">
          <mxGeometry width="50" height="50" relative="1" as="geometry">
            <mxPoint x="320" y="345" as="sourcePoint" />
            <mxPoint x="315" y="335" as="targetPoint" />
          </mxGeometry>
        </mxCell>
        <mxCell id="_3eXtyB6_VE_7zWDLSlq-80" value="$$s$$" style="text;html=1;align=center;verticalAlign=middle;whiteSpace=wrap;rounded=0;" vertex="1" parent="1">
          <mxGeometry x="300" y="330" width="10" height="20" as="geometry" />
        </mxCell>
        <mxCell id="_3eXtyB6_VE_7zWDLSlq-84" value="" style="endArrow=none;html=1;rounded=0;startSize=6;endSize=6;" edge="1" parent="1">
          <mxGeometry width="50" height="50" relative="1" as="geometry">
            <mxPoint x="410" y="339.90999999999997" as="sourcePoint" />
            <mxPoint x="425" y="339.90999999999997" as="targetPoint" />
          </mxGeometry>
        </mxCell>
        <mxCell id="_3eXtyB6_VE_7zWDLSlq-85" value="" style="endArrow=none;html=1;rounded=0;" edge="1" parent="1">
          <mxGeometry width="50" height="50" relative="1" as="geometry">
            <mxPoint x="420" y="345" as="sourcePoint" />
            <mxPoint x="415" y="335" as="targetPoint" />
          </mxGeometry>
        </mxCell>
        <mxCell id="_3eXtyB6_VE_7zWDLSlq-86" value="$$s$$" style="text;html=1;align=center;verticalAlign=middle;whiteSpace=wrap;rounded=0;" vertex="1" parent="1">
          <mxGeometry x="400" y="330" width="10" height="20" as="geometry" />
        </mxCell>
        <mxCell id="_3eXtyB6_VE_7zWDLSlq-87" value="" style="endArrow=none;html=1;rounded=0;startSize=6;endSize=6;" edge="1" parent="1">
          <mxGeometry width="50" height="50" relative="1" as="geometry">
            <mxPoint x="510" y="339.90999999999997" as="sourcePoint" />
            <mxPoint x="525" y="339.90999999999997" as="targetPoint" />
          </mxGeometry>
        </mxCell>
        <mxCell id="_3eXtyB6_VE_7zWDLSlq-88" value="" style="endArrow=none;html=1;rounded=0;" edge="1" parent="1">
          <mxGeometry width="50" height="50" relative="1" as="geometry">
            <mxPoint x="520" y="345" as="sourcePoint" />
            <mxPoint x="515" y="335" as="targetPoint" />
          </mxGeometry>
        </mxCell>
        <mxCell id="_3eXtyB6_VE_7zWDLSlq-89" value="$$s$$" style="text;html=1;align=center;verticalAlign=middle;whiteSpace=wrap;rounded=0;" vertex="1" parent="1">
          <mxGeometry x="500" y="330" width="10" height="20" as="geometry" />
        </mxCell>
        <mxCell id="_3eXtyB6_VE_7zWDLSlq-90" value="$$d_{i4}$$" style="text;html=1;align=center;verticalAlign=middle;whiteSpace=wrap;rounded=0;" vertex="1" parent="1">
          <mxGeometry x="580" y="290" width="20" height="20" as="geometry" />
        </mxCell>
        <mxCell id="_3eXtyB6_VE_7zWDLSlq-91" value="0" style="text;html=1;align=center;verticalAlign=middle;whiteSpace=wrap;rounded=0;" vertex="1" parent="1">
          <mxGeometry x="560" y="290" width="20" height="20" as="geometry" />
        </mxCell>
        <mxCell id="_3eXtyB6_VE_7zWDLSlq-92" value="0" style="text;html=1;align=center;verticalAlign=middle;whiteSpace=wrap;rounded=0;" vertex="1" parent="1">
          <mxGeometry x="540" y="290" width="20" height="20" as="geometry" />
        </mxCell>
        <mxCell id="_3eXtyB6_VE_7zWDLSlq-93" value="0" style="text;html=1;align=center;verticalAlign=middle;whiteSpace=wrap;rounded=0;" vertex="1" parent="1">
          <mxGeometry x="520" y="290" width="20" height="20" as="geometry" />
        </mxCell>
        <mxCell id="_3eXtyB6_VE_7zWDLSlq-94" value="$$d_{i3}$$" style="text;html=1;align=center;verticalAlign=middle;whiteSpace=wrap;rounded=0;" vertex="1" parent="1">
          <mxGeometry x="480" y="290" width="20" height="20" as="geometry" />
        </mxCell>
        <mxCell id="_3eXtyB6_VE_7zWDLSlq-95" value="$$d_{i4}$$" style="text;html=1;align=center;verticalAlign=middle;whiteSpace=wrap;rounded=0;" vertex="1" parent="1">
          <mxGeometry x="460" y="290" width="20" height="20" as="geometry" />
        </mxCell>
        <mxCell id="_3eXtyB6_VE_7zWDLSlq-96" value="0" style="text;html=1;align=center;verticalAlign=middle;whiteSpace=wrap;rounded=0;" vertex="1" parent="1">
          <mxGeometry x="440" y="290" width="20" height="20" as="geometry" />
        </mxCell>
        <mxCell id="_3eXtyB6_VE_7zWDLSlq-97" value="0" style="text;html=1;align=center;verticalAlign=middle;whiteSpace=wrap;rounded=0;" vertex="1" parent="1">
          <mxGeometry x="420" y="290" width="20" height="20" as="geometry" />
        </mxCell>
        <mxCell id="_3eXtyB6_VE_7zWDLSlq-100" value="$$d_{i2}$$" style="text;html=1;align=center;verticalAlign=middle;whiteSpace=wrap;rounded=0;" vertex="1" parent="1">
          <mxGeometry x="380" y="290" width="20" height="20" as="geometry" />
        </mxCell>
        <mxCell id="_3eXtyB6_VE_7zWDLSlq-101" value="$$d_{i3}$$" style="text;html=1;align=center;verticalAlign=middle;whiteSpace=wrap;rounded=0;" vertex="1" parent="1">
          <mxGeometry x="360" y="290" width="20" height="20" as="geometry" />
        </mxCell>
        <mxCell id="_3eXtyB6_VE_7zWDLSlq-102" value="$$d_{i4}$$" style="text;html=1;align=center;verticalAlign=middle;whiteSpace=wrap;rounded=0;" vertex="1" parent="1">
          <mxGeometry x="340" y="290" width="20" height="20" as="geometry" />
        </mxCell>
        <mxCell id="_3eXtyB6_VE_7zWDLSlq-104" value="" style="endArrow=none;html=1;rounded=0;" edge="1" parent="1" target="_3eXtyB6_VE_7zWDLSlq-103">
          <mxGeometry width="50" height="50" relative="1" as="geometry">
            <mxPoint x="330" y="329.39" as="sourcePoint" />
            <mxPoint x="330" y="309.39" as="targetPoint" />
          </mxGeometry>
        </mxCell>
        <mxCell id="_3eXtyB6_VE_7zWDLSlq-103" value="0" style="text;html=1;align=center;verticalAlign=middle;whiteSpace=wrap;rounded=0;" vertex="1" parent="1">
          <mxGeometry x="320" y="290" width="20" height="20" as="geometry" />
        </mxCell>
        <mxCell id="_3eXtyB6_VE_7zWDLSlq-105" value="$$d_{i1}$$" style="text;html=1;align=center;verticalAlign=middle;whiteSpace=wrap;rounded=0;" vertex="1" parent="1">
          <mxGeometry x="280" y="290" width="20" height="20" as="geometry" />
        </mxCell>
        <mxCell id="_3eXtyB6_VE_7zWDLSlq-106" value="$$d_{i2}$$" style="text;html=1;align=center;verticalAlign=middle;whiteSpace=wrap;rounded=0;" vertex="1" parent="1">
          <mxGeometry x="260" y="290" width="20" height="20" as="geometry" />
        </mxCell>
        <mxCell id="_3eXtyB6_VE_7zWDLSlq-107" value="$$d_{i3}$$" style="text;html=1;align=center;verticalAlign=middle;whiteSpace=wrap;rounded=0;" vertex="1" parent="1">
          <mxGeometry x="240" y="290" width="20" height="20" as="geometry" />
        </mxCell>
        <mxCell id="_3eXtyB6_VE_7zWDLSlq-108" value="$$d_{i4}$$" style="text;html=1;align=center;verticalAlign=middle;whiteSpace=wrap;rounded=0;" vertex="1" parent="1">
          <mxGeometry x="220" y="290" width="20" height="20" as="geometry" />
        </mxCell>
        <mxCell id="_3eXtyB6_VE_7zWDLSlq-109" value="$$d_{i0}$$" style="text;html=1;align=center;verticalAlign=middle;whiteSpace=wrap;rounded=0;" vertex="1" parent="1">
          <mxGeometry x="180" y="290" width="20" height="20" as="geometry" />
        </mxCell>
        <mxCell id="_3eXtyB6_VE_7zWDLSlq-110" value="$$d_{i1}$$" style="text;html=1;align=center;verticalAlign=middle;whiteSpace=wrap;rounded=0;" vertex="1" parent="1">
          <mxGeometry x="160" y="290" width="20" height="20" as="geometry" />
        </mxCell>
        <mxCell id="_3eXtyB6_VE_7zWDLSlq-111" value="$$d_{i2}$$" style="text;html=1;align=center;verticalAlign=middle;whiteSpace=wrap;rounded=0;" vertex="1" parent="1">
          <mxGeometry x="140" y="290" width="20" height="20" as="geometry" />
        </mxCell>
        <mxCell id="_3eXtyB6_VE_7zWDLSlq-112" value="$$d_{i3}$$" style="text;html=1;align=center;verticalAlign=middle;whiteSpace=wrap;rounded=0;" vertex="1" parent="1">
          <mxGeometry x="120" y="290" width="20" height="20" as="geometry" />
        </mxCell>
      </root>
    </mxGraphModel>
  </diagram>
</mxfile>
